<svg width="800" height="800" viewBox="0 0 800 800" fill="none" xmlns="http://www.w3.org/2000/svg">
<g clip-path="url(#clip0_1_2)">
<path d="M763.333 273.333V268.333L680 86.6667C677.444 80.8073 673.257 75.8065 667.938 72.2604C662.618 68.7144 656.392 66.7726 650 66.6667H150C143.608 66.7726 137.382 68.7144 132.062 72.2604C126.743 75.8065 122.556 80.8073 120 86.6667L38.3333 268.333V273.333C34.296 288.092 33.6991 303.58 36.5886 318.605C39.4781 333.63 45.7768 347.792 55 360C67.491 374.874 83.5458 386.341 101.667 393.333V683.333C101.434 689.962 102.568 696.568 104.998 702.74C107.429 708.911 111.103 714.516 115.793 719.207C120.484 723.897 126.089 727.571 132.26 730.002C138.432 732.432 145.038 733.566 151.667 733.333H650C656.629 733.566 663.235 732.432 669.406 730.002C675.578 727.571 681.183 723.897 685.873 719.207C690.563 714.516 694.238 708.911 696.668 702.74C699.099 696.568 700.233 689.962 700 683.333V393.333C718.121 386.341 734.176 374.874 746.667 360C755.89 347.792 762.189 333.63 765.078 318.605C767.968 303.58 767.371 288.092 763.333 273.333ZM100 293.333L171.667 133.333H628.333L700 293.333C700.711 297.735 700.485 302.237 699.336 306.545C698.188 310.853 696.142 314.87 693.333 318.333C689.988 323.145 685.489 327.04 680.247 329.661C675.006 332.282 669.19 333.545 663.333 333.333H648.333C643.517 333.557 638.704 332.829 634.169 331.19C629.635 329.552 625.468 327.035 621.907 323.784C618.347 320.533 615.462 316.612 613.419 312.245C611.376 307.877 610.214 303.15 610 298.333C610 289.493 606.488 281.014 600.237 274.763C593.986 268.512 585.507 265 576.667 265C567.826 265 559.348 268.512 553.096 274.763C546.845 281.014 543.333 289.493 543.333 298.333C543.339 303.073 542.381 307.765 540.519 312.124C538.657 316.483 535.929 320.418 532.5 323.69C529.071 326.963 525.014 329.506 520.573 331.163C516.132 332.821 511.401 333.559 506.667 333.333H470C465.265 333.559 460.534 332.821 456.094 331.163C451.653 329.506 447.595 326.963 444.167 323.69C440.738 320.418 438.01 316.483 436.148 312.124C434.285 307.765 433.328 303.073 433.333 298.333C433.333 289.493 429.821 281.014 423.57 274.763C417.319 268.512 408.841 265 400 265C391.159 265 382.681 268.512 376.43 274.763C370.179 281.014 366.667 289.493 366.667 298.333C366.672 303.073 365.715 307.765 363.852 312.124C361.99 316.483 359.262 320.418 355.833 323.69C352.405 326.963 348.347 329.506 343.906 331.163C339.466 332.821 334.735 333.559 330 333.333H293.333C288.599 333.559 283.868 332.821 279.427 331.163C274.986 329.506 270.929 326.963 267.5 323.69C264.071 320.418 261.343 316.483 259.481 312.124C257.619 307.765 256.661 303.073 256.667 298.333C256.667 289.493 253.155 281.014 246.904 274.763C240.652 268.512 232.174 265 223.333 265C214.493 265 206.014 268.512 199.763 274.763C193.512 281.014 190 289.493 190 298.333C189.786 303.15 188.624 307.877 186.581 312.245C184.538 316.612 181.653 320.533 178.093 323.784C174.532 327.035 170.365 329.552 165.831 331.19C161.296 332.829 156.483 333.557 151.667 333.333H136.667C130.81 333.545 124.994 332.282 119.753 329.661C114.511 327.04 110.012 323.145 106.667 318.333C103.858 314.87 101.812 310.853 100.664 306.545C99.5147 302.237 99.2886 297.735 100 293.333ZM583.333 666.667V450H466.667V666.667H166.667V398.333C187.755 396.322 207.63 387.553 223.333 373.333C242.595 390.526 267.515 400.02 293.333 400H330C355.818 400.02 380.739 390.526 400 373.333C419.261 390.526 444.182 400.02 470 400H506.667C532.485 400.02 557.405 390.526 576.667 373.333C592.369 387.553 612.245 396.322 633.333 398.333V666.667H583.333Z" fill="#0868B8"/>
<path d="M400 450H216.667V616.667H400V450Z" fill="#0868B8"/>
</g>
<defs>
<clipPath id="clip0_1_2">
<rect width="800" height="800" fill="white"/>
</clipPath>
</defs>
</svg>
