<svg width="800" height="800" viewBox="0 0 800 800" fill="none" xmlns="http://www.w3.org/2000/svg">
<g clip-path="url(#clip0_9_5)">
<path d="M94.3741 399.122C24.0274 328.775 24.0273 214.721 94.374 144.374V144.374C164.721 74.0273 278.775 74.0273 349.122 144.374L657.447 452.698L402.698 707.447L94.3741 399.122Z" fill="#FF0000"/>
<path d="M423.409 134.403C499.263 58.5485 622.247 58.5484 698.101 134.402V134.402C773.955 210.256 773.955 333.24 698.101 409.094L399.748 707.447L125.056 432.755L423.409 134.403Z" fill="#FF0000"/>
<path d="M735.383 113.633C693.492 71.7421 638.033 48.8462 578.843 48.8462C519.653 48.8462 464.024 71.9117 422.133 113.803L400.255 135.681L378.038 113.463C336.147 71.5725 280.349 48.3374 221.159 48.3374C162.138 48.3374 106.51 71.4029 64.7885 113.124C22.8975 155.015 -0.167938 210.644 0.0016611 269.834C0.0016611 329.024 23.2367 384.483 65.1277 426.373L383.635 744.88C388.044 749.29 393.98 751.664 399.746 751.664C405.513 751.664 411.449 749.459 415.858 745.05L735.044 427.052C776.934 385.161 800 329.532 800 270.342C800.17 211.152 777.274 155.524 735.383 113.633ZM702.82 394.659L399.746 696.545L97.3515 394.15C64.1101 360.908 45.7934 316.813 45.7934 269.834C45.7934 222.855 63.9405 178.759 97.1819 145.687C130.254 112.615 174.349 94.2987 221.159 94.2987C268.138 94.2987 312.403 112.615 345.644 145.857L383.974 184.186C392.962 193.175 407.378 193.175 416.367 184.186L454.357 146.196C487.599 112.955 531.864 94.6379 578.673 94.6379C625.483 94.6379 669.578 112.955 702.82 146.026C736.061 179.268 754.208 223.364 754.208 270.342C754.378 317.321 736.061 361.417 702.82 394.659Z" fill="black"/>
</g>
<defs>
<clipPath id="clip0_9_5">
<rect width="800" height="800" fill="white"/>
</clipPath>
</defs>
</svg>
