<svg width="693" height="800" viewBox="0 0 693 800" fill="none" xmlns="http://www.w3.org/2000/svg">
<path d="M626.253 265.028H601.584H198.416H173.747H149.094L213.372 800H586.63L650.908 265.028H626.253ZM287.788 737.519L266.269 331.641L315.167 329.045L336.702 734.923L287.788 737.519ZM424.489 736.212H375.509V330.334H424.489V736.212ZM512.213 737.519L463.298 734.923L484.833 329.045L533.731 331.641L512.213 737.519Z" fill="#BD0505"/>
<path d="M516.278 91.6578V78.3687C516.278 35.1516 481.127 0 437.911 0H362.091C318.875 0 283.723 35.1516 283.723 78.3672V91.6562H107.314V216.048H131.803H143.198H656.798H668.194H692.683V91.6578H516.278ZM467.298 91.6578H332.703V78.3687C332.703 62.1562 345.878 48.9812 362.091 48.9812H437.911C454.123 48.9812 467.298 62.1562 467.298 78.3687V91.6578Z" fill="#BD0505"/>
<path d="M500.883 501.68C498.197 493.412 491.055 487.386 482.459 486.137L336.667 464.941L271.466 332.731C267.621 324.936 259.686 320 251 320C242.312 320 234.378 324.936 230.535 332.731L165.337 464.939L19.5411 486.136C10.9447 487.386 3.80133 493.412 1.11743 501.679C-1.56647 509.948 0.671633 519.023 6.89298 525.091L112.391 627.984L87.4769 773.301C86.0087 781.87 89.5279 790.529 96.5556 795.638C100.531 798.529 105.24 800 109.972 800C113.604 800 117.251 799.134 120.591 797.377L250.998 728.774L381.405 797.377C384.764 799.144 388.443 799.986 392.087 800C404.678 799.982 414.878 789.764 414.878 777.162C414.878 775.409 414.68 773.699 414.306 772.059L389.607 627.986L495.106 525.091C501.328 519.023 503.567 509.948 500.883 501.68Z" fill="#FFF531"/>
</svg>
