<svg width="800" height="800" viewBox="0 0 800 800" fill="none" xmlns="http://www.w3.org/2000/svg">
<path d="M626.253 265.028H601.584H198.416H173.747H149.094L213.372 800H586.63L650.908 265.028H626.253ZM287.788 737.519L266.269 331.641L315.167 329.045L336.702 734.923L287.788 737.519ZM424.489 736.212H375.509V330.334H424.489V736.212ZM512.213 737.519L463.298 734.923L484.833 329.045L533.731 331.641L512.213 737.519Z" fill="#BD0505"/>
<path d="M516.278 91.6578V78.3687C516.278 35.1516 481.127 0 437.911 0H362.091C318.875 0 283.723 35.1516 283.723 78.3672V91.6562H107.314V216.048H131.803H143.198H656.798H668.194H692.683V91.6578H516.278ZM467.298 91.6578H332.703V78.3687C332.703 62.1562 345.878 48.9812 362.091 48.9812H437.911C454.123 48.9812 467.298 62.1562 467.298 78.3687V91.6578Z" fill="#BD0505"/>
<path fill-rule="evenodd" clip-rule="evenodd" d="M28.5712 783.429H257.141C272.912 783.429 285.712 770.63 285.712 754.858C285.712 739.087 272.912 726.287 257.141 726.287H28.5712C12.7999 726.287 0 739.087 0 754.858C0 770.63 12.7999 783.429 28.5712 783.429ZM340.397 592.831L314.826 720.687C312.969 730.058 315.883 739.744 322.654 746.487C329.397 753.258 339.083 756.173 348.454 754.315L476.31 728.744L340.397 592.831ZM699.994 523.832L526.11 697.716L371.425 543.032L545.309 369.147L699.994 523.832ZM585.709 328.748L740.393 483.432L791.622 432.204C802.793 421.061 802.793 402.947 791.622 391.804L677.337 277.52C666.194 266.348 648.08 266.348 636.937 277.52L585.709 328.748Z" fill="#686BF2"/>
</svg>
