<svg width="1894" height="745" viewBox="0 0 1894 745" fill="none" xmlns="http://www.w3.org/2000/svg">
<path d="M1820.87 183.542L1847 151.585L1815.06 125.439L1751.18 73.146L1719.24 47L1693.11 78.9564L1371.82 471.876L1270.05 395.507L1237.04 370.733L1212.28 403.765L1162.76 469.828L1138 502.86L1171.01 527.634L1367.72 675.25L1399.37 699L1424.42 668.367L1820.87 183.542Z" stroke="#222222" stroke-opacity="0.3" stroke-width="66.6667"/>
<path d="M204.124 445.705C201.534 436.208 199.314 426.897 197.464 417.77C195.614 408.767 194.196 400.688 193.209 393.535C192.223 386.382 191.729 381.078 191.729 377.625C191.729 368.498 193.209 360.173 196.169 352.65C199.129 345.127 202.953 338.528 207.639 332.855C212.326 327.058 217.383 322.187 222.809 318.24C228.236 314.17 233.478 311.148 238.534 309.175C243.714 307.078 248.093 306.03 251.669 306.03C254.753 306.03 257.466 306.708 259.809 308.065C262.153 309.422 264.434 312.073 266.654 316.02C268.874 319.967 271.218 325.763 273.684 333.41C276.028 340.44 278.248 345.805 280.344 349.505C282.441 353.082 284.723 355.548 287.189 356.905C289.656 358.138 292.493 358.755 295.699 358.755C298.289 358.755 300.139 359.495 301.249 360.975C302.483 362.332 303.099 363.997 303.099 365.97C303.099 367.943 302.236 369.793 300.509 371.52C298.783 373.123 296.563 373.925 293.849 373.925C289.039 373.925 284.908 373.062 281.454 371.335C278.124 369.608 275.226 367.265 272.759 364.305L277.014 360.79C275.534 364.367 273.623 367.327 271.279 369.67C269.059 371.89 266.531 373.555 263.694 374.665C260.981 375.775 258.083 376.33 254.999 376.33C251.423 376.33 247.723 375.652 243.899 374.295C240.076 373.062 236.314 371.212 232.614 368.745C228.914 366.155 225.399 363.01 222.069 359.31C218.863 355.61 216.026 351.417 213.559 346.73L215.409 347.1C211.956 351.91 209.674 357.152 208.564 362.825C207.454 368.375 206.899 373.308 206.899 377.625C206.899 381.078 207.269 385.457 208.009 390.76C208.749 396.187 209.674 401.922 210.784 407.965C212.018 414.008 213.313 419.99 214.669 425.91C216.149 431.953 217.506 437.38 218.739 442.19L204.124 445.705ZM256.479 361.16C258.699 361.16 260.488 360.728 261.844 359.865C263.324 359.002 264.311 357.707 264.804 355.98C265.298 354.253 265.113 352.095 264.249 349.505C262.769 345.065 261.413 341.18 260.179 337.85C258.946 334.397 257.713 331.56 256.479 329.34C255.369 326.997 254.198 325.27 252.964 324.16C251.731 323.05 250.436 322.495 249.079 322.495C247.723 322.495 245.996 322.803 243.899 323.42C241.926 324.037 239.768 324.962 237.424 326.195C235.204 327.428 232.923 328.97 230.579 330.82C228.236 332.67 226.016 334.828 223.919 337.295L224.104 335.815C226.818 341.488 230.086 346.237 233.909 350.06C237.856 353.883 241.803 356.72 245.749 358.57C249.819 360.297 253.396 361.16 256.479 361.16ZM293.761 373.925L295.611 358.755C302.888 358.755 308.561 358.508 312.631 358.015C316.701 357.398 319.6 355.98 321.326 353.76C323.053 351.417 323.916 347.778 323.916 342.845C323.916 339.762 323.423 336.123 322.436 331.93C321.45 327.613 320.155 323.05 318.551 318.24C316.948 313.43 315.221 308.682 313.371 303.995L328.356 298.445C329.96 302.392 331.44 306.893 332.796 311.95C334.276 317.007 335.51 322.002 336.496 326.935C337.483 331.868 337.976 336.185 337.976 339.885C337.976 346.052 337.113 351.293 335.386 355.61C333.783 359.927 331.193 363.442 327.616 366.155C324.04 368.868 319.415 370.842 313.741 372.075C308.191 373.308 301.531 373.925 293.761 373.925ZM334.091 279.205C331.501 279.205 329.281 278.342 327.431 276.615C325.705 274.765 324.841 272.607 324.841 270.14C324.841 267.673 325.705 265.515 327.431 263.665C329.281 261.815 331.501 260.89 334.091 260.89C336.558 260.89 338.655 261.815 340.381 263.665C342.231 265.515 343.156 267.673 343.156 270.14C343.156 272.607 342.231 274.765 340.381 276.615C338.655 278.342 336.558 279.205 334.091 279.205ZM308.746 279.205C306.156 279.205 303.936 278.342 302.086 276.615C300.36 274.765 299.496 272.607 299.496 270.14C299.496 267.673 300.36 265.515 302.086 263.665C303.936 261.815 306.156 260.89 308.746 260.89C311.213 260.89 313.31 261.815 315.036 263.665C316.886 265.515 317.811 267.673 317.811 270.14C317.811 272.607 316.886 274.765 315.036 276.615C313.31 278.342 311.213 279.205 308.746 279.205ZM473.226 376.885L478.036 361.715C492.466 361.715 504.861 361.345 515.221 360.605C525.704 359.865 534.276 358.693 540.936 357.09C547.719 355.363 552.714 353.082 555.921 350.245C559.251 347.285 560.916 343.708 560.916 339.515C560.916 334.828 560.052 329.402 558.326 323.235C556.599 317.068 554.379 310.47 551.666 303.44L565.911 298.445C567.514 302.392 568.994 306.647 570.351 311.21C571.831 315.65 573.064 320.09 574.051 324.53C575.037 328.847 575.531 332.855 575.531 336.555C575.531 343.832 573.866 350.06 570.536 355.24C567.206 360.297 561.656 364.428 553.886 367.635C546.116 370.842 535.632 373.185 522.436 374.665C509.362 376.145 492.959 376.885 473.226 376.885ZM473.226 376.885C462.249 376.885 452.567 376.145 444.181 374.665C435.917 373.308 429.011 371.15 423.461 368.19C417.911 365.23 413.717 361.407 410.881 356.72C408.044 351.91 406.626 346.113 406.626 339.33C406.626 336.247 406.872 333.102 407.366 329.895C407.859 326.565 408.476 323.235 409.216 319.905C410.079 316.575 410.942 313.368 411.806 310.285L425.681 313.8C425.187 315.65 424.632 317.87 424.016 320.46C423.399 322.927 422.844 325.455 422.351 328.045C421.981 330.635 421.796 332.978 421.796 335.075C421.796 341.488 423.399 346.668 426.606 350.615C429.936 354.438 435.671 357.275 443.811 359.125C451.951 360.852 463.359 361.715 478.036 361.715L481.736 370.965L473.226 376.885ZM504.121 298.815C501.531 298.815 499.311 297.952 497.461 296.225C495.734 294.375 494.871 292.217 494.871 289.75C494.871 287.283 495.734 285.125 497.461 283.275C499.311 281.425 501.531 280.5 504.121 280.5C506.587 280.5 508.684 281.425 510.411 283.275C512.261 285.125 513.186 287.283 513.186 289.75C513.186 292.217 512.261 294.375 510.411 296.225C508.684 297.952 506.587 298.815 504.121 298.815ZM478.776 298.815C476.186 298.815 473.966 297.952 472.116 296.225C470.389 294.375 469.526 292.217 469.526 289.75C469.526 287.283 470.389 285.125 472.116 283.275C473.966 281.425 476.186 280.5 478.776 280.5C481.242 280.5 483.339 281.425 485.066 283.275C486.916 285.125 487.841 287.283 487.841 289.75C487.841 292.217 486.916 294.375 485.066 296.225C483.339 297.952 481.242 298.815 478.776 298.815ZM638.646 373.925C628.779 373.925 621.194 372.815 615.891 370.595C610.711 368.375 607.134 364.922 605.161 360.235C603.188 355.548 602.078 349.505 601.831 342.105L598.131 240.91H613.301L617.001 336.185C617.248 342.228 617.803 346.915 618.666 350.245C619.653 353.452 621.749 355.672 624.956 356.905C628.286 358.138 633.466 358.755 640.496 358.755C643.086 358.755 644.936 359.495 646.046 360.975C647.279 362.332 647.896 363.997 647.896 365.97C647.896 367.943 647.033 369.793 645.306 371.52C643.579 373.123 641.359 373.925 638.646 373.925ZM638.649 373.925L640.499 358.755C648.269 358.755 654.251 358.693 658.444 358.57C662.761 358.447 665.906 358.323 667.879 358.2C669.852 357.953 671.209 357.83 671.949 357.83C669.729 356.597 667.139 354.685 664.179 352.095C661.219 349.382 658.629 345.99 656.409 341.92C654.189 337.727 653.079 332.793 653.079 327.12C653.079 320.09 654.682 313.923 657.889 308.62C661.219 303.317 665.721 299.185 671.394 296.225C677.191 293.265 683.789 291.785 691.189 291.785C694.026 291.785 697.047 292.032 700.254 292.525C703.461 293.018 706.544 293.758 709.504 294.745L706.359 308.99C703.892 308.373 701.302 307.88 698.589 307.51C695.876 307.14 693.409 306.955 691.189 306.955C686.749 306.955 682.802 307.818 679.349 309.545C675.896 311.148 673.182 313.43 671.209 316.39C669.236 319.35 668.249 322.927 668.249 327.12C668.249 330.327 668.927 333.287 670.284 336C671.641 338.59 673.429 340.933 675.649 343.03C677.869 345.127 680.336 346.853 683.049 348.21C685.762 349.567 688.414 350.615 691.004 351.355C693.717 352.095 696.122 352.403 698.219 352.28C699.699 351.787 701.056 351.355 702.289 350.985C703.522 350.615 704.879 350.183 706.359 349.69C707.962 349.073 709.874 348.272 712.094 347.285C714.437 346.298 717.397 345.003 720.974 343.4L726.154 356.905C717.891 360.235 709.442 363.195 700.809 365.785C692.299 368.375 682.987 370.41 672.874 371.89C662.884 373.247 651.476 373.925 638.649 373.925ZM687.674 272.73C685.084 272.73 682.864 271.867 681.014 270.14C679.287 268.29 678.424 266.132 678.424 263.665C678.424 261.198 679.287 259.04 681.014 257.19C682.864 255.34 685.084 254.415 687.674 254.415C690.141 254.415 692.237 255.34 693.964 257.19C695.814 259.04 696.739 261.198 696.739 263.665C696.739 266.132 695.814 268.29 693.964 270.14C692.237 271.867 690.141 272.73 687.674 272.73ZM842.506 373.925C835.106 373.925 829.001 373.308 824.191 372.075C819.504 370.842 815.804 368.93 813.091 366.34C810.501 363.75 808.651 360.482 807.541 356.535C806.554 352.465 805.938 347.655 805.691 342.105L801.991 240.91H817.161L820.861 336.185C821.108 342.228 821.663 346.915 822.526 350.245C823.513 353.452 825.609 355.672 828.816 356.905C832.146 358.138 837.326 358.755 844.356 358.755C846.946 358.755 848.796 359.495 849.906 360.975C851.139 362.332 851.756 363.997 851.756 365.97C851.756 367.943 850.893 369.793 849.166 371.52C847.439 373.123 845.219 373.925 842.506 373.925ZM757.961 373.925C754.631 373.925 751.239 373.617 747.786 373C744.456 372.507 742.113 372.137 740.756 371.89L742.791 357.275C751.301 358.385 759.318 358.57 766.841 357.83C774.364 357.09 780.901 354.993 786.451 351.54C792.124 347.963 796.564 342.598 799.771 335.445C802.978 328.292 804.581 318.98 804.581 307.51L813.461 329.71C811.981 337.48 809.761 344.017 806.801 349.32C803.841 354.5 800.388 358.755 796.441 362.085C792.618 365.292 788.486 367.758 784.046 369.485C779.606 371.212 775.166 372.383 770.726 373C766.286 373.617 762.031 373.925 757.961 373.925ZM798.106 348.58C796.133 344.757 793.358 340.317 789.781 335.26C786.204 330.08 781.888 324.468 776.831 318.425C771.774 312.382 766.039 306.092 759.626 299.555C753.336 293.018 746.491 286.42 739.091 279.76L749.081 269.215C757.221 276.985 764.436 284.262 770.726 291.045C777.139 297.705 782.751 303.995 787.561 309.915C792.371 315.712 796.503 321.015 799.956 325.825C803.409 330.635 806.308 335.013 808.651 338.96L798.106 348.58ZM842.438 373.925L844.288 358.755C850.331 358.755 855.141 358.385 858.718 357.645C862.295 356.905 864.885 355.425 866.488 353.205C868.091 350.862 868.893 347.408 868.893 342.845C868.893 339.762 868.4 336.123 867.413 331.93C866.426 327.613 865.131 323.05 863.528 318.24C861.925 313.43 860.198 308.682 858.348 303.995L873.333 298.445C874.936 302.392 876.416 306.893 877.773 311.95C879.253 317.007 880.486 322.002 881.473 326.935C882.46 331.868 882.953 336.185 882.953 339.885C882.953 344.818 882.398 349.197 881.288 353.02C880.301 356.72 878.76 359.927 876.663 362.64C874.566 365.23 871.853 367.388 868.523 369.115C865.316 370.718 861.555 371.952 857.238 372.815C852.921 373.555 847.988 373.925 842.438 373.925ZM862.233 408.335C859.643 408.335 857.423 407.41 855.573 405.56C853.846 403.833 852.983 401.737 852.983 399.27C852.983 396.803 853.846 394.645 855.573 392.795C857.423 390.945 859.643 390.02 862.233 390.02C864.7 390.02 866.796 390.945 868.523 392.795C870.373 394.645 871.298 396.803 871.298 399.27C871.298 401.737 870.373 403.833 868.523 405.56C866.796 407.41 864.7 408.335 862.233 408.335ZM393.304 597.925C383.438 597.925 375.853 596.815 370.549 594.595C365.369 592.375 361.793 588.922 359.819 584.235C357.846 579.548 356.736 573.505 356.489 566.105L352.789 464.91H367.959L371.659 560.185C371.906 566.228 372.461 570.915 373.324 574.245C374.311 577.452 376.408 579.672 379.614 580.905C382.944 582.138 388.124 582.755 395.154 582.755C397.744 582.755 399.594 583.495 400.704 584.975C401.938 586.332 402.554 587.997 402.554 589.97C402.554 591.943 401.691 593.793 399.964 595.52C398.238 597.123 396.018 597.925 393.304 597.925ZM450.102 637.145C442.332 637.145 435.302 635.357 429.012 631.78C422.722 628.203 417.727 622.777 414.027 615.5C410.327 608.347 408.477 599.343 408.477 588.49C408.477 578.5 409.649 569.312 411.992 560.925C414.335 552.538 417.419 545.323 421.242 539.28C425.189 533.113 429.505 528.365 434.192 525.035C438.879 521.705 443.504 520.04 448.067 520.04C452.137 520.04 455.775 521.212 458.982 523.555C462.189 525.898 464.717 529.167 466.567 533.36C468.417 537.553 469.342 542.548 469.342 548.345C469.342 553.525 468.54 558.705 466.937 563.885C465.334 569.065 462.312 573.752 457.872 577.945C453.555 582.138 447.327 585.345 439.187 587.565L451.212 577.39C455.159 578.377 459.105 579.302 463.052 580.165C467.122 580.905 471.254 581.522 475.447 582.015C479.764 582.508 484.265 582.755 488.952 582.755C491.542 582.755 493.392 583.495 494.502 584.975C495.735 586.332 496.352 587.997 496.352 589.97C496.352 591.943 495.489 593.793 493.762 595.52C492.035 597.123 489.815 597.925 487.102 597.925C483.772 597.925 480.195 597.74 476.372 597.37C472.549 597 468.725 596.568 464.902 596.075C461.079 595.458 457.44 594.78 453.987 594.04L470.082 593.485C473.165 596.815 475.262 600.392 476.372 604.215C477.605 608.162 477.914 612.047 477.297 615.87C476.804 619.817 475.385 623.393 473.042 626.6C470.822 629.807 467.8 632.335 463.977 634.185C460.154 636.158 455.529 637.145 450.102 637.145ZM393.307 597.925L395.157 582.755C397.747 582.755 400.337 582.755 402.927 582.755C405.517 582.755 407.984 582.693 410.327 582.57L411.067 596.26C408.23 596.753 405.27 597.123 402.187 597.37C399.227 597.74 396.267 597.925 393.307 597.925ZM450.472 621.975C452.692 621.975 454.85 621.543 456.947 620.68C459.167 619.94 460.955 618.583 462.312 616.61C463.792 614.76 464.532 612.232 464.532 609.025C464.532 605.942 463.73 603.105 462.127 600.515C460.647 598.048 457.995 596.013 454.172 594.41C450.349 592.807 444.922 592.005 437.892 592.005C436.412 592.005 434.747 592.128 432.897 592.375C431.17 592.498 429.382 592.745 427.532 593.115C425.682 593.362 423.77 593.732 421.797 594.225V581.645C426.484 581.028 430.739 580.103 434.562 578.87C438.509 577.513 441.962 575.663 444.922 573.32C447.882 570.977 450.164 567.893 451.767 564.07C453.37 560.247 454.172 555.56 454.172 550.01C454.172 548.16 453.925 546.063 453.432 543.72C453.062 541.377 452.322 539.403 451.212 537.8C450.102 536.073 448.622 535.21 446.772 535.21C444.922 535.21 442.64 536.443 439.927 538.91C437.337 541.377 434.747 544.83 432.157 549.27C429.69 553.71 427.594 559.013 425.867 565.18C424.264 571.223 423.462 577.883 423.462 585.16C423.462 593.177 424.325 599.59 426.052 604.4C427.902 609.333 430.245 613.033 433.082 615.5C435.919 618.09 438.879 619.817 441.962 620.68C445.045 621.543 447.882 621.975 450.472 621.975ZM487.072 597.925L488.737 582.755C495.767 582.755 500.7 582.077 503.537 580.72C506.373 579.363 507.977 576.958 508.347 573.505C508.84 570.052 508.963 565.242 508.717 559.075L505.572 464.91H520.927L523.887 558.705C524.133 564.995 525.12 569.928 526.847 573.505C528.697 576.958 531.163 579.363 534.247 580.72C537.33 582.077 540.722 582.755 544.422 582.755C547.012 582.755 548.862 583.495 549.972 584.975C551.205 586.332 551.822 587.997 551.822 589.97C551.822 591.943 550.958 593.793 549.232 595.52C547.505 597.123 545.285 597.925 542.572 597.925C537.392 597.925 533.075 597.123 529.622 595.52C526.292 593.793 523.64 591.635 521.667 589.045C519.817 586.332 518.583 583.495 517.967 580.535L521.852 580.905C520.618 584.605 518.583 587.75 515.747 590.34C513.033 592.807 509.333 594.718 504.647 596.075C499.96 597.308 494.102 597.925 487.072 597.925ZM542.536 597.925L544.386 582.755C547.839 582.755 550.552 582.015 552.526 580.535C554.622 579.055 556.596 576.588 558.446 573.135C560.419 569.682 562.886 565.057 565.846 559.26C568.806 553.34 571.766 548.53 574.726 544.83C577.809 541.007 580.769 538.047 583.606 535.95C586.566 533.73 589.341 532.188 591.931 531.325C594.521 530.462 596.926 530.03 599.146 530.03C603.216 530.03 606.854 530.955 610.061 532.805C613.267 534.532 616.289 537.553 619.126 541.87C621.962 546.063 624.861 551.86 627.821 559.26C630.657 566.043 633.186 571.162 635.406 574.615C637.749 577.945 640.154 580.165 642.621 581.275C645.211 582.262 648.109 582.755 651.316 582.755C653.906 582.755 655.756 583.495 656.866 584.975C658.099 586.332 658.716 587.997 658.716 589.97C658.716 591.943 657.852 593.793 656.126 595.52C654.399 597.123 652.179 597.925 649.466 597.925C644.656 597.925 640.216 597.123 636.146 595.52C632.199 593.917 628.869 591.388 626.156 587.935L628.746 584.05C627.389 587.873 625.539 591.018 623.196 593.485C620.976 595.828 618.447 597.555 615.611 598.665C612.774 599.898 609.752 600.515 606.546 600.515C602.476 600.515 598.282 599.652 593.966 597.925C589.772 596.198 585.702 593.732 581.756 590.525C577.809 587.318 574.356 583.557 571.396 579.24C568.189 584.913 565.106 589.107 562.146 591.82C559.309 594.41 556.349 596.075 553.266 596.815C550.182 597.555 546.606 597.925 542.536 597.925ZM578.426 565.18C580.522 568.633 582.742 571.655 585.086 574.245C587.552 576.835 590.019 578.993 592.486 580.72C594.952 582.323 597.357 583.557 599.701 584.42C602.167 585.16 604.387 585.53 606.361 585.53C610.677 585.53 613.822 583.988 615.796 580.905C617.892 577.822 617.831 573.505 615.611 567.955C614.501 565.118 613.329 562.343 612.096 559.63C610.986 556.917 609.752 554.45 608.396 552.23C607.039 549.887 605.497 548.098 603.771 546.865C602.044 545.508 600.132 544.83 598.036 544.83C596.186 544.83 594.212 545.447 592.116 546.68C590.142 547.913 587.984 550.01 585.641 552.97C583.421 555.93 581.016 560 578.426 565.18ZM649.489 597.925L651.339 582.755C659.109 582.755 665.09 582.693 669.284 582.57C673.6 582.447 676.745 582.323 678.719 582.2C680.692 581.953 682.049 581.83 682.789 581.83C680.569 580.597 677.979 578.685 675.019 576.095C672.059 573.382 669.469 569.99 667.249 565.92C665.029 561.727 663.919 556.793 663.919 551.12C663.919 544.09 665.522 537.923 668.729 532.62C672.059 527.317 676.56 523.185 682.234 520.225C688.03 517.265 694.629 515.785 702.029 515.785C704.865 515.785 707.887 516.032 711.094 516.525C714.3 517.018 717.384 517.758 720.344 518.745L717.199 532.99C714.732 532.373 712.142 531.88 709.429 531.51C706.715 531.14 704.249 530.955 702.029 530.955C697.589 530.955 693.642 531.818 690.189 533.545C686.735 535.148 684.022 537.43 682.049 540.39C680.075 543.35 679.089 546.927 679.089 551.12C679.089 554.327 679.767 557.287 681.124 560C682.48 562.59 684.269 564.933 686.489 567.03C688.709 569.127 691.175 570.853 693.889 572.21C696.602 573.567 699.254 574.615 701.844 575.355C704.557 576.095 706.962 576.403 709.059 576.28C710.539 575.787 711.895 575.355 713.129 574.985C714.362 574.615 715.719 574.183 717.199 573.69C718.802 573.073 720.714 572.272 722.934 571.285C725.277 570.298 728.237 569.003 731.814 567.4L736.994 580.905C728.73 584.235 720.282 587.195 711.649 589.785C703.139 592.375 693.827 594.41 683.714 595.89C673.724 597.247 662.315 597.925 649.489 597.925Z" fill="black" fill-opacity="0.3"/>
</svg>
