<svg width="1882" height="800" viewBox="0 0 1882 800" fill="none" xmlns="http://www.w3.org/2000/svg">
<g opacity="0.3">
<path d="M1848.67 800H1115.33V733.333H1195.33C1142 566.667 1248.67 500 1318.67 453.333C1348.67 433.333 1378.67 416.667 1378.67 400C1378.67 383.333 1348.67 363.333 1318.67 346.667C1248.67 300 1142 236.667 1195.33 66.6667H1115.33V0H1848.67V66.6667H1768.67C1822 233.333 1715.33 300 1645.33 346.667C1612 363.333 1582 383.333 1582 400C1582 416.667 1612 436.667 1642 453.333C1712 500 1818.67 566.667 1765.33 733.333H1848.67V800ZM1268.67 733.333H1695.33C1748.67 600 1678.67 556.667 1608.67 510C1562 483.333 1515.33 453.333 1515.33 400C1515.33 346.667 1562 316.667 1608.67 290C1678.67 243.333 1748.67 200 1695.33 66.6667H1268.67C1215.33 200 1285.33 243.333 1355.33 290C1402 316.667 1448.67 346.667 1448.67 400C1448.67 453.333 1402 483.333 1355.33 510C1285.33 556.667 1215.33 600 1268.67 733.333Z" fill="black"/>
<path d="M1642 766.667H1315.33C1305.33 716.667 1322 686.667 1392 623.333C1418.67 600 1452 573.333 1482 530C1515.33 570 1548.67 600 1572 623.333C1642 690 1658.67 700 1642 766.667Z" fill="black"/>
<path d="M1395.33 200C1372 243.333 1372 243.333 1425.33 270C1442 276.667 1462 286.667 1478.67 300C1495.33 286.667 1518.67 276.667 1532 270C1588.67 243.333 1588.67 243.333 1565.33 200" fill="black"/>
<path d="M154.848 419.55L149.483 405.49C161.94 401.543 171.498 396.795 178.158 391.245C184.941 385.818 189.566 380.145 192.033 374.225C194.623 368.305 195.918 362.632 195.918 357.205C195.918 353.752 195.548 350.422 194.808 347.215C194.068 344.008 192.773 340.37 190.923 336.3C189.073 332.23 186.483 327.173 183.153 321.13L196.658 314.285C201.345 322.302 204.675 329.887 206.648 337.04C208.745 344.193 209.793 350.483 209.793 355.91C209.793 363.68 208.498 370.71 205.908 377C203.441 383.29 200.111 388.84 195.918 393.65C191.848 398.583 187.346 402.777 182.413 406.23C177.603 409.683 172.731 412.52 167.798 414.74C162.988 416.96 158.671 418.563 154.848 419.55ZM275.873 377.925C266.006 377.925 258.421 376.815 253.118 374.595C247.938 372.375 244.361 368.922 242.388 364.235C240.414 359.548 239.304 353.505 239.058 346.105L235.358 244.91H250.528L254.228 340.185C254.474 346.228 255.029 350.915 255.893 354.245C256.879 357.452 258.976 359.672 262.183 360.905C265.513 362.138 270.693 362.755 277.723 362.755C280.313 362.755 282.163 363.495 283.273 364.975C284.506 366.332 285.123 367.997 285.123 369.97C285.123 371.943 284.259 373.793 282.533 375.52C280.806 377.123 278.586 377.925 275.873 377.925ZM275.875 377.925L277.54 362.755C283.954 362.755 290.244 362.262 296.41 361.275C302.577 360.288 308.62 358.87 314.54 357.02C320.46 355.17 326.134 352.95 331.56 350.36C337.11 347.647 342.352 344.563 347.285 341.11C344.079 338.273 340.379 335.807 336.185 333.71C331.992 331.613 327.367 330.01 322.31 328.9C317.377 327.667 312.135 327.05 306.585 327.05C304.612 327.05 302.762 327.112 301.035 327.235C299.309 327.358 297.582 327.605 295.855 327.975C294.129 328.222 292.155 328.592 289.935 329.085L286.975 315.025C290.305 314.038 293.635 313.298 296.965 312.805C300.295 312.188 303.502 311.88 306.585 311.88C312.999 311.88 318.795 312.682 323.975 314.285C329.155 315.765 333.842 317.615 338.035 319.835C342.352 322.055 346.36 324.275 350.06 326.495C353.884 328.715 357.584 330.627 361.16 332.23C364.737 333.71 368.437 334.45 372.26 334.45H376.145L377.44 347.77C372.137 347.77 367.265 348.51 362.825 349.99C358.385 351.47 354.007 353.382 349.69 355.725C345.497 357.945 341.057 360.35 336.37 362.94C331.684 365.407 326.504 367.812 320.83 370.155C315.157 372.375 308.62 374.225 301.22 375.705C293.944 377.185 285.495 377.925 275.875 377.925ZM327.49 411.41C324.9 411.41 322.68 410.485 320.83 408.635C319.104 406.908 318.24 404.812 318.24 402.345C318.24 399.878 319.104 397.72 320.83 395.87C322.68 394.02 324.9 393.095 327.49 393.095C329.957 393.095 332.054 394.02 333.78 395.87C335.63 397.72 336.555 399.878 336.555 402.345C336.555 404.812 335.63 406.908 333.78 408.635C332.054 410.485 329.957 411.41 327.49 411.41ZM508.997 380.885L513.807 365.715C528.237 365.715 540.632 365.345 550.992 364.605C561.476 363.865 570.047 362.693 576.707 361.09C583.491 359.363 588.486 357.082 591.692 354.245C595.022 351.285 596.687 347.708 596.687 343.515C596.687 338.828 595.824 333.402 594.097 327.235C592.371 321.068 590.151 314.47 587.437 307.44L601.682 302.445C603.286 306.392 604.766 310.647 606.122 315.21C607.602 319.65 608.836 324.09 609.822 328.53C610.809 332.847 611.302 336.855 611.302 340.555C611.302 347.832 609.637 354.06 606.307 359.24C602.977 364.297 597.427 368.428 589.657 371.635C581.887 374.842 571.404 377.185 558.207 378.665C545.134 380.145 528.731 380.885 508.997 380.885ZM508.997 380.885C498.021 380.885 488.339 380.145 479.952 378.665C471.689 377.308 464.782 375.15 459.232 372.19C453.682 369.23 449.489 365.407 446.652 360.72C443.816 355.91 442.397 350.113 442.397 343.33C442.397 340.247 442.644 337.102 443.137 333.895C443.631 330.565 444.247 327.235 444.987 323.905C445.851 320.575 446.714 317.368 447.577 314.285L461.452 317.8C460.959 319.65 460.404 321.87 459.787 324.46C459.171 326.927 458.616 329.455 458.122 332.045C457.752 334.635 457.567 336.978 457.567 339.075C457.567 345.488 459.171 350.668 462.377 354.615C465.707 358.438 471.442 361.275 479.582 363.125C487.722 364.852 499.131 365.715 513.807 365.715L517.507 374.965L508.997 380.885ZM539.892 302.815C537.302 302.815 535.082 301.952 533.232 300.225C531.506 298.375 530.642 296.217 530.642 293.75C530.642 291.283 531.506 289.125 533.232 287.275C535.082 285.425 537.302 284.5 539.892 284.5C542.359 284.5 544.456 285.425 546.182 287.275C548.032 289.125 548.957 291.283 548.957 293.75C548.957 296.217 548.032 298.375 546.182 300.225C544.456 301.952 542.359 302.815 539.892 302.815ZM514.547 302.815C511.957 302.815 509.737 301.952 507.887 300.225C506.161 298.375 505.297 296.217 505.297 293.75C505.297 291.283 506.161 289.125 507.887 287.275C509.737 285.425 511.957 284.5 514.547 284.5C517.014 284.5 519.111 285.425 520.837 287.275C522.687 289.125 523.612 291.283 523.612 293.75C523.612 296.217 522.687 298.375 520.837 300.225C519.111 301.952 517.014 302.815 514.547 302.815ZM674.418 377.925C664.551 377.925 656.966 376.815 651.663 374.595C646.483 372.375 642.906 368.922 640.933 364.235C638.959 359.548 637.849 353.505 637.603 346.105L633.903 244.91H649.073L652.773 340.185C653.019 346.228 653.574 350.915 654.438 354.245C655.424 357.452 657.521 359.672 660.728 360.905C664.058 362.138 669.238 362.755 676.268 362.755C678.858 362.755 680.708 363.495 681.818 364.975C683.051 366.332 683.668 367.997 683.668 369.97C683.668 371.943 682.804 373.793 681.078 375.52C679.351 377.123 677.131 377.925 674.418 377.925ZM674.42 377.925L676.27 362.755C684.04 362.755 690.022 362.693 694.215 362.57C698.532 362.447 701.677 362.323 703.65 362.2C705.624 361.953 706.98 361.83 707.72 361.83C705.5 360.597 702.91 358.685 699.95 356.095C696.99 353.382 694.4 349.99 692.18 345.92C689.96 341.727 688.85 336.793 688.85 331.12C688.85 324.09 690.454 317.923 693.66 312.62C696.99 307.317 701.492 303.185 707.165 300.225C712.962 297.265 719.56 295.785 726.96 295.785C729.797 295.785 732.819 296.032 736.025 296.525C739.232 297.018 742.315 297.758 745.275 298.745L742.13 312.99C739.664 312.373 737.074 311.88 734.36 311.51C731.647 311.14 729.18 310.955 726.96 310.955C722.52 310.955 718.574 311.818 715.12 313.545C711.667 315.148 708.954 317.43 706.98 320.39C705.007 323.35 704.02 326.927 704.02 331.12C704.02 334.327 704.699 337.287 706.055 340C707.412 342.59 709.2 344.933 711.42 347.03C713.64 349.127 716.107 350.853 718.82 352.21C721.534 353.567 724.185 354.615 726.775 355.355C729.489 356.095 731.894 356.403 733.99 356.28C735.47 355.787 736.827 355.355 738.06 354.985C739.294 354.615 740.65 354.183 742.13 353.69C743.734 353.073 745.645 352.272 747.865 351.285C750.209 350.298 753.169 349.003 756.745 347.4L761.925 360.905C753.662 364.235 745.214 367.195 736.58 369.785C728.07 372.375 718.759 374.41 708.645 375.89C698.655 377.247 687.247 377.925 674.42 377.925ZM723.445 276.73C720.855 276.73 718.635 275.867 716.785 274.14C715.059 272.29 714.195 270.132 714.195 267.665C714.195 265.198 715.059 263.04 716.785 261.19C718.635 259.34 720.855 258.415 723.445 258.415C725.912 258.415 728.009 259.34 729.735 261.19C731.585 263.04 732.51 265.198 732.51 267.665C732.51 270.132 731.585 272.29 729.735 274.14C728.009 275.867 725.912 276.73 723.445 276.73ZM878.277 377.925C870.877 377.925 864.772 377.308 859.962 376.075C855.276 374.842 851.576 372.93 848.862 370.34C846.272 367.75 844.422 364.482 843.312 360.535C842.326 356.465 841.709 351.655 841.462 346.105L837.762 244.91H852.932L856.632 340.185C856.879 346.228 857.434 350.915 858.297 354.245C859.284 357.452 861.381 359.672 864.587 360.905C867.917 362.138 873.097 362.755 880.127 362.755C882.717 362.755 884.567 363.495 885.677 364.975C886.911 366.332 887.527 367.997 887.527 369.97C887.527 371.943 886.664 373.793 884.937 375.52C883.211 377.123 880.991 377.925 878.277 377.925ZM793.732 377.925C790.402 377.925 787.011 377.617 783.557 377C780.227 376.507 777.884 376.137 776.527 375.89L778.562 361.275C787.072 362.385 795.089 362.57 802.612 361.83C810.136 361.09 816.672 358.993 822.222 355.54C827.896 351.963 832.336 346.598 835.542 339.445C838.749 332.292 840.352 322.98 840.352 311.51L849.232 333.71C847.752 341.48 845.532 348.017 842.572 353.32C839.612 358.5 836.159 362.755 832.212 366.085C828.389 369.292 824.257 371.758 819.817 373.485C815.377 375.212 810.937 376.383 806.497 377C802.057 377.617 797.802 377.925 793.732 377.925ZM833.877 352.58C831.904 348.757 829.129 344.317 825.552 339.26C821.976 334.08 817.659 328.468 812.602 322.425C807.546 316.382 801.811 310.092 795.397 303.555C789.107 297.018 782.262 290.42 774.862 283.76L784.852 273.215C792.992 280.985 800.207 288.262 806.497 295.045C812.911 301.705 818.522 307.995 823.332 313.915C828.142 319.712 832.274 325.015 835.727 329.825C839.181 334.635 842.079 339.013 844.422 342.96L833.877 352.58ZM878.209 377.925L880.059 362.755C886.103 362.755 890.913 362.385 894.489 361.645C898.066 360.905 900.656 359.425 902.259 357.205C903.863 354.862 904.664 351.408 904.664 346.845C904.664 343.762 904.171 340.123 903.184 335.93C902.198 331.613 900.903 327.05 899.299 322.24C897.696 317.43 895.969 312.682 894.119 307.995L909.104 302.445C910.708 306.392 912.188 310.893 913.544 315.95C915.024 321.007 916.258 326.002 917.244 330.935C918.231 335.868 918.724 340.185 918.724 343.885C918.724 348.818 918.169 353.197 917.059 357.02C916.073 360.72 914.531 363.927 912.434 366.64C910.338 369.23 907.624 371.388 904.294 373.115C901.088 374.718 897.326 375.952 893.009 376.815C888.693 377.555 883.759 377.925 878.209 377.925ZM898.004 412.335C895.414 412.335 893.194 411.41 891.344 409.56C889.618 407.833 888.754 405.737 888.754 403.27C888.754 400.803 889.618 398.645 891.344 396.795C893.194 394.945 895.414 394.02 898.004 394.02C900.471 394.02 902.568 394.945 904.294 396.795C906.144 398.645 907.069 400.803 907.069 403.27C907.069 405.737 906.144 407.833 904.294 409.56C902.568 411.41 900.471 412.335 898.004 412.335ZM170.907 601.925C161.04 601.925 153.455 600.815 148.152 598.595C142.972 596.375 139.395 592.922 137.422 588.235C135.448 583.548 134.338 577.505 134.092 570.105L130.392 468.91H145.562L149.262 564.185C149.508 570.228 150.063 574.915 150.927 578.245C151.913 581.452 154.01 583.672 157.217 584.905C160.547 586.138 165.727 586.755 172.757 586.755C175.347 586.755 177.197 587.495 178.307 588.975C179.54 590.332 180.157 591.997 180.157 593.97C180.157 595.943 179.293 597.793 177.567 599.52C175.84 601.123 173.62 601.925 170.907 601.925ZM227.705 641.145C219.935 641.145 212.905 639.357 206.615 635.78C200.325 632.203 195.33 626.777 191.63 619.5C187.93 612.347 186.08 603.343 186.08 592.49C186.08 582.5 187.251 573.312 189.595 564.925C191.938 556.538 195.021 549.323 198.845 543.28C202.791 537.113 207.108 532.365 211.795 529.035C216.481 525.705 221.106 524.04 225.67 524.04C229.74 524.04 233.378 525.212 236.585 527.555C239.791 529.898 242.32 533.167 244.17 537.36C246.02 541.553 246.945 546.548 246.945 552.345C246.945 557.525 246.143 562.705 244.54 567.885C242.936 573.065 239.915 577.752 235.475 581.945C231.158 586.138 224.93 589.345 216.79 591.565L228.815 581.39C232.761 582.377 236.708 583.302 240.655 584.165C244.725 584.905 248.856 585.522 253.05 586.015C257.366 586.508 261.868 586.755 266.555 586.755C269.145 586.755 270.995 587.495 272.105 588.975C273.338 590.332 273.955 591.997 273.955 593.97C273.955 595.943 273.091 597.793 271.365 599.52C269.638 601.123 267.418 601.925 264.705 601.925C261.375 601.925 257.798 601.74 253.975 601.37C250.151 601 246.328 600.568 242.505 600.075C238.681 599.458 235.043 598.78 231.59 598.04L247.685 597.485C250.768 600.815 252.865 604.392 253.975 608.215C255.208 612.162 255.516 616.047 254.9 619.87C254.406 623.817 252.988 627.393 250.645 630.6C248.425 633.807 245.403 636.335 241.58 638.185C237.756 640.158 233.131 641.145 227.705 641.145ZM170.91 601.925L172.76 586.755C175.35 586.755 177.94 586.755 180.53 586.755C183.12 586.755 185.586 586.693 187.93 586.57L188.67 600.26C185.833 600.753 182.873 601.123 179.79 601.37C176.83 601.74 173.87 601.925 170.91 601.925ZM228.075 625.975C230.295 625.975 232.453 625.543 234.55 624.68C236.77 623.94 238.558 622.583 239.915 620.61C241.395 618.76 242.135 616.232 242.135 613.025C242.135 609.942 241.333 607.105 239.73 604.515C238.25 602.048 235.598 600.013 231.775 598.41C227.951 596.807 222.525 596.005 215.495 596.005C214.015 596.005 212.35 596.128 210.5 596.375C208.773 596.498 206.985 596.745 205.135 597.115C203.285 597.362 201.373 597.732 199.4 598.225V585.645C204.086 585.028 208.341 584.103 212.165 582.87C216.111 581.513 219.565 579.663 222.525 577.32C225.485 574.977 227.766 571.893 229.37 568.07C230.973 564.247 231.775 559.56 231.775 554.01C231.775 552.16 231.528 550.063 231.035 547.72C230.665 545.377 229.925 543.403 228.815 541.8C227.705 540.073 226.225 539.21 224.375 539.21C222.525 539.21 220.243 540.443 217.53 542.91C214.94 545.377 212.35 548.83 209.76 553.27C207.293 557.71 205.196 563.013 203.47 569.18C201.866 575.223 201.065 581.883 201.065 589.16C201.065 597.177 201.928 603.59 203.655 608.4C205.505 613.333 207.848 617.033 210.685 619.5C213.521 622.09 216.481 623.817 219.565 624.68C222.648 625.543 225.485 625.975 228.075 625.975ZM264.674 601.925L266.524 586.755C272.691 586.755 277.501 586.323 280.954 585.46C284.408 584.473 286.998 582.685 288.724 580.095C290.574 577.382 292.054 573.497 293.164 568.44C294.274 563.383 295.631 556.785 297.234 548.645L311.664 551.42C311.171 553.64 310.616 556.107 309.999 558.82C309.383 561.533 308.828 564.247 308.334 566.96C307.964 569.55 307.779 571.832 307.779 573.805C307.779 575.655 307.903 577.382 308.149 578.985C308.396 580.588 309.321 581.945 310.924 583.055C312.528 584.165 315.241 585.09 319.064 585.83C322.888 586.447 328.376 586.755 335.529 586.755C338.119 586.755 339.969 587.495 341.079 588.975C342.313 590.332 342.929 591.997 342.929 593.97C342.929 595.943 342.066 597.793 340.339 599.52C338.613 601.123 336.393 601.925 333.679 601.925C326.156 601.925 320.174 601.555 315.734 600.815C311.294 599.952 307.903 598.718 305.559 597.115C303.339 595.512 301.736 593.538 300.749 591.195C299.886 588.728 299.208 585.892 298.714 582.685L304.264 583.055C302.291 587.002 300.133 590.208 297.789 592.675C295.569 595.142 292.979 597.053 290.019 598.41C287.059 599.767 283.483 600.692 279.289 601.185C275.219 601.678 270.348 601.925 264.674 601.925ZM311.294 636.89C308.704 636.89 306.484 635.965 304.634 634.115C302.908 632.388 302.044 630.292 302.044 627.825C302.044 625.358 302.908 623.2 304.634 621.35C306.484 619.5 308.704 618.575 311.294 618.575C313.761 618.575 315.858 619.5 317.584 621.35C319.434 623.2 320.359 625.358 320.359 627.825C320.359 630.292 319.434 632.388 317.584 634.115C315.858 635.965 313.761 636.89 311.294 636.89ZM285.949 636.89C283.359 636.89 281.139 635.965 279.289 634.115C277.563 632.388 276.699 630.292 276.699 627.825C276.699 625.358 277.563 623.2 279.289 621.35C281.139 619.5 283.359 618.575 285.949 618.575C288.416 618.575 290.513 619.5 292.239 621.35C294.089 623.2 295.014 625.358 295.014 627.825C295.014 630.292 294.089 632.388 292.239 634.115C290.513 635.965 288.416 636.89 285.949 636.89ZM333.688 601.925L335.353 586.755C342.383 586.755 347.316 586.077 350.153 584.72C352.99 583.363 354.593 580.958 354.963 577.505C355.456 574.052 355.58 569.242 355.333 563.075L352.188 468.91H367.543L370.503 562.705C370.75 568.995 371.736 573.928 373.463 577.505C375.313 580.958 377.78 583.363 380.863 584.72C383.946 586.077 387.338 586.755 391.038 586.755C393.628 586.755 395.478 587.495 396.588 588.975C397.821 590.332 398.438 591.997 398.438 593.97C398.438 595.943 397.575 597.793 395.848 599.52C394.121 601.123 391.901 601.925 389.188 601.925C384.008 601.925 379.691 601.123 376.238 599.52C372.908 597.793 370.256 595.635 368.283 593.045C366.433 590.332 365.2 587.495 364.583 584.535L368.468 584.905C367.235 588.605 365.2 591.75 362.363 594.34C359.65 596.807 355.95 598.718 351.263 600.075C346.576 601.308 340.718 601.925 333.688 601.925ZM389.152 601.925L391.002 586.755C398.772 586.755 404.754 586.693 408.947 586.57C413.264 586.447 416.409 586.323 418.382 586.2C420.355 585.953 421.712 585.83 422.452 585.83C420.232 584.597 417.642 582.685 414.682 580.095C411.722 577.382 409.132 573.99 406.912 569.92C404.692 565.727 403.582 560.793 403.582 555.12C403.582 548.09 405.185 541.923 408.392 536.62C411.722 531.317 416.224 527.185 421.897 524.225C427.694 521.265 434.292 519.785 441.692 519.785C444.529 519.785 447.55 520.032 450.757 520.525C453.964 521.018 457.047 521.758 460.007 522.745L456.862 536.99C454.395 536.373 451.805 535.88 449.092 535.51C446.379 535.14 443.912 534.955 441.692 534.955C437.252 534.955 433.305 535.818 429.852 537.545C426.399 539.148 423.685 541.43 421.712 544.39C419.739 547.35 418.752 550.927 418.752 555.12C418.752 558.327 419.43 561.287 420.787 564C422.144 566.59 423.932 568.933 426.152 571.03C428.372 573.127 430.839 574.853 433.552 576.21C436.265 577.567 438.917 578.615 441.507 579.355C444.22 580.095 446.625 580.403 448.722 580.28C450.202 579.787 451.559 579.355 452.792 578.985C454.025 578.615 455.382 578.183 456.862 577.69C458.465 577.073 460.377 576.272 462.597 575.285C464.94 574.298 467.9 573.003 471.477 571.4L476.657 584.905C468.394 588.235 459.945 591.195 451.312 593.785C442.802 596.375 433.49 598.41 423.377 599.89C413.387 601.247 401.979 601.925 389.152 601.925ZM539.775 601.185C539.775 598.225 540.022 595.08 540.515 591.75C541.132 588.297 541.995 584.658 543.105 580.835C544.338 576.888 545.818 572.757 547.545 568.44L560.865 573.62C559.632 577.073 558.522 580.342 557.535 583.425C556.672 586.508 555.993 589.407 555.5 592.12C555.13 594.833 554.945 597.423 554.945 599.89C554.945 606.18 556.61 611.483 559.94 615.8C563.27 620.117 567.587 623.323 572.89 625.42C578.317 627.64 584.113 628.75 590.28 628.75C602.367 628.75 611.802 626.592 618.585 622.275C625.368 618.082 630.117 612.47 632.83 605.44C635.543 598.533 636.715 590.948 636.345 582.685L632.275 468.91H647.63L650.59 562.705C650.837 568.995 651.823 573.928 653.55 577.505C655.4 580.958 657.867 583.363 660.95 584.72C664.033 586.077 667.425 586.755 671.125 586.755C673.715 586.755 675.565 587.495 676.675 588.975C677.908 590.332 678.525 591.997 678.525 593.97C678.525 595.943 677.662 597.793 675.935 599.52C674.208 601.123 671.988 601.925 669.275 601.925C665.452 601.925 662.183 601.432 659.47 600.445C656.757 599.335 654.537 597.978 652.81 596.375C651.083 594.648 649.727 592.737 648.74 590.64C647.753 588.42 647.013 586.2 646.52 583.98L651.7 589.16C651.207 595.697 649.788 602.172 647.445 608.585C645.225 615.122 641.772 621.042 637.085 626.345C632.398 631.648 626.108 635.903 618.215 639.11C610.445 642.317 600.825 643.92 589.355 643.92C582.942 643.92 576.713 642.933 570.67 640.96C564.75 639.11 559.447 636.335 554.76 632.635C550.197 628.935 546.558 624.433 543.845 619.13C541.132 613.95 539.775 607.968 539.775 601.185ZM669.362 601.925L671.212 586.755C674.665 586.755 677.378 586.015 679.352 584.535C681.448 583.055 683.422 580.588 685.272 577.135C687.245 573.682 689.712 569.057 692.672 563.26C695.632 557.34 698.592 552.53 701.552 548.83C704.635 545.007 707.595 542.047 710.432 539.95C713.392 537.73 716.167 536.188 718.757 535.325C721.347 534.462 723.752 534.03 725.972 534.03C730.042 534.03 733.68 534.955 736.887 536.805C740.093 538.532 743.115 541.553 745.952 545.87C748.788 550.063 751.687 555.86 754.647 563.26C757.483 570.043 760.012 575.162 762.232 578.615C764.575 581.945 766.98 584.165 769.447 585.275C772.037 586.262 774.935 586.755 778.142 586.755C780.732 586.755 782.582 587.495 783.692 588.975C784.925 590.332 785.542 591.997 785.542 593.97C785.542 595.943 784.678 597.793 782.952 599.52C781.225 601.123 779.005 601.925 776.292 601.925C771.482 601.925 767.042 601.123 762.972 599.52C759.025 597.917 755.695 595.388 752.982 591.935L755.572 588.05C754.215 591.873 752.365 595.018 750.022 597.485C747.802 599.828 745.273 601.555 742.437 602.665C739.6 603.898 736.578 604.515 733.372 604.515C729.302 604.515 725.108 603.652 720.792 601.925C716.598 600.198 712.528 597.732 708.582 594.525C704.635 591.318 701.182 587.557 698.222 583.24C695.015 588.913 691.932 593.107 688.972 595.82C686.135 598.41 683.175 600.075 680.092 600.815C677.008 601.555 673.432 601.925 669.362 601.925ZM705.252 569.18C707.348 572.633 709.568 575.655 711.912 578.245C714.378 580.835 716.845 582.993 719.312 584.72C721.778 586.323 724.183 587.557 726.527 588.42C728.993 589.16 731.213 589.53 733.187 589.53C737.503 589.53 740.648 587.988 742.622 584.905C744.718 581.822 744.657 577.505 742.437 571.955C741.327 569.118 740.155 566.343 738.922 563.63C737.812 560.917 736.578 558.45 735.222 556.23C733.865 553.887 732.323 552.098 730.597 550.865C728.87 549.508 726.958 548.83 724.862 548.83C723.012 548.83 721.038 549.447 718.942 550.68C716.968 551.913 714.81 554.01 712.467 556.97C710.247 559.93 707.842 564 705.252 569.18ZM776.315 601.925L778.165 586.755C785.565 586.755 792.533 586.077 799.07 584.72C805.607 583.24 811.588 581.328 817.015 578.985C822.565 576.518 827.313 573.743 831.26 570.66C835.207 567.453 838.228 564.185 840.325 560.855C842.545 557.402 843.655 554.01 843.655 550.68C843.655 549.077 843.1 547.473 841.99 545.87C840.88 544.143 838.968 542.725 836.255 541.615C833.665 540.505 830.15 539.95 825.71 539.95C822.997 539.95 819.975 540.32 816.645 541.06C813.315 541.8 810.108 542.848 807.025 544.205C804.065 545.438 801.598 546.857 799.625 548.46C802.955 551.173 806.038 553.825 808.875 556.415C811.835 559.005 814.857 561.842 817.94 564.925C821.023 567.885 824.353 571.277 827.93 575.1C830.767 577.197 833.912 578.985 837.365 580.465C840.942 581.945 844.765 583.178 848.835 584.165C853.028 585.028 857.283 585.707 861.6 586.2C865.917 586.57 870.233 586.755 874.55 586.755C877.14 586.755 878.99 587.495 880.1 588.975C881.333 590.332 881.95 591.997 881.95 593.97C881.95 595.943 881.087 597.793 879.36 599.52C877.633 601.123 875.413 601.925 872.7 601.925C865.917 601.925 858.948 601.308 851.795 600.075C844.765 598.718 838.167 596.745 832 594.155C825.833 591.442 820.592 588.05 816.275 583.98C814.178 581.267 811.835 578.553 809.245 575.84C806.655 573.127 803.818 570.413 800.735 567.7C797.775 564.863 794.568 562.212 791.115 559.745C790.375 559.128 789.635 558.018 788.895 556.415C788.155 554.812 787.538 553.147 787.045 551.42C786.552 549.693 786.305 548.398 786.305 547.535C786.305 545.685 787.477 543.465 789.82 540.875C792.163 538.285 795.308 535.818 799.255 533.475C803.202 531.008 807.703 528.973 812.76 527.37C817.817 525.767 823.058 524.965 828.485 524.965C835.515 524.965 841.188 526.013 845.505 528.11C849.945 530.207 853.152 532.92 855.125 536.25C857.222 539.457 858.27 542.91 858.27 546.61C858.27 552.037 856.913 557.463 854.2 562.89C851.487 568.193 847.602 573.188 842.545 577.875C837.488 582.562 831.568 586.755 824.785 590.455C818.002 594.032 810.478 596.868 802.215 598.965C794.075 600.938 785.442 601.925 776.315 601.925ZM872.79 601.925L874.455 586.755C881.485 586.755 886.418 586.077 889.255 584.72C892.091 583.363 893.695 580.958 894.065 577.505C894.558 574.052 894.681 569.242 894.435 563.075L890.92 468.91H905.905L909.605 561.41C909.851 567.947 909.605 573.743 908.865 578.8C908.248 583.857 906.645 588.112 904.055 591.565C901.588 595.018 897.826 597.608 892.77 599.335C887.836 601.062 881.176 601.925 872.79 601.925ZM937.866 601L934.166 468.91H949.151L952.851 601H937.866Z" fill="black"/>
</g>
</svg>
